<mxfile host="app.diagrams.net" modified="2022-09-14T05:40:48.734Z" agent="5.0 (Macintosh; Intel Mac OS X 10_15_7) AppleWebKit/605.1.15 (KHTML, like Gecko) Version/15.6.1 Safari/605.1.15" etag="ed52HSwT4D6OHjM-1ryS" version="20.3.0" type="github">
  <diagram name="Page-1" id="e7e014a7-5840-1c2e-5031-d8a46d1fe8dd">
    <mxGraphModel dx="1082" dy="684" grid="1" gridSize="10" guides="1" tooltips="1" connect="1" arrows="1" fold="1" page="1" pageScale="1" pageWidth="1169" pageHeight="826" background="none" math="0" shadow="0">
      <root>
        <mxCell id="0" />
        <mxCell id="1" parent="0" />
        <mxCell id="2" value="EPIC" style="swimlane;whiteSpace=wrap" parent="1" vertex="1">
          <mxGeometry x="164.5" y="128" width="280" height="570" as="geometry" />
        </mxCell>
        <mxCell id="5" value="" style="ellipse;shape=startState;fillColor=#000000;strokeColor=#ff0000;" parent="2" vertex="1">
          <mxGeometry x="100" y="40" width="30" height="30" as="geometry" />
        </mxCell>
        <mxCell id="6" value="" style="edgeStyle=elbowEdgeStyle;elbow=horizontal;verticalAlign=bottom;endArrow=open;endSize=8;strokeColor=#FF0000;endFill=1;rounded=0" parent="2" source="5" target="7" edge="1">
          <mxGeometry x="100" y="40" as="geometry">
            <mxPoint x="115" y="110" as="targetPoint" />
          </mxGeometry>
        </mxCell>
        <mxCell id="7" value="Unreal Engin5" style="" parent="2" vertex="1">
          <mxGeometry x="60" y="110" width="110" height="50" as="geometry" />
        </mxCell>
        <mxCell id="8" value="Design Car Configurator" style="" parent="2" vertex="1">
          <mxGeometry x="45" y="220" width="140" height="50" as="geometry" />
        </mxCell>
        <mxCell id="9" value="" style="endArrow=open;strokeColor=#FF0000;endFill=1;rounded=0" parent="2" edge="1">
          <mxGeometry relative="1" as="geometry">
            <mxPoint x="115.5" y="162" as="sourcePoint" />
            <mxPoint x="115.5" y="222" as="targetPoint" />
          </mxGeometry>
        </mxCell>
        <mxCell id="10" value="Package Android " style="" parent="2" vertex="1">
          <mxGeometry x="51" y="325" width="130" height="50" as="geometry" />
        </mxCell>
        <mxCell id="11" value="" style="endArrow=open;strokeColor=#FF0000;endFill=1;rounded=0" parent="2" edge="1">
          <mxGeometry relative="1" as="geometry">
            <mxPoint x="115.5" y="272" as="sourcePoint" />
            <mxPoint x="115.5" y="322" as="targetPoint" />
          </mxGeometry>
        </mxCell>
        <mxCell id="12" value="" style="edgeStyle=elbowEdgeStyle;elbow=horizontal;strokeColor=#FF0000;endArrow=open;endFill=1;rounded=0;" parent="2" edge="1">
          <mxGeometry width="100" height="100" relative="1" as="geometry">
            <mxPoint x="185.5" y="352" as="sourcePoint" />
            <mxPoint x="295.5" y="352" as="targetPoint" />
            <Array as="points" />
          </mxGeometry>
        </mxCell>
        <mxCell id="24" value="" style="endArrow=open;strokeColor=#FF0000;endFill=1;rounded=0" parent="2" edge="1">
          <mxGeometry relative="1" as="geometry">
            <mxPoint x="185" y="247" as="sourcePoint" />
            <mxPoint x="295.5" y="247" as="targetPoint" />
          </mxGeometry>
        </mxCell>
        <mxCell id="20" value="" style="endArrow=open;strokeColor=#FF0000;endFill=1;rounded=0;entryX=-0.032;entryY=0.46;entryDx=0;entryDy=0;entryPerimeter=0;" parent="2" target="8" edge="1">
          <mxGeometry relative="1" as="geometry">
            <mxPoint x="40.5" y="243" as="sourcePoint" />
          </mxGeometry>
        </mxCell>
        <mxCell id="3" value="Android" style="swimlane;whiteSpace=wrap" parent="1" vertex="1">
          <mxGeometry x="444.5" y="128" width="280" height="570" as="geometry" />
        </mxCell>
        <mxCell id="13" value="" style="ellipse;shape=startState;fillColor=#000000;strokeColor=#ff0000;" parent="3" vertex="1">
          <mxGeometry x="60" y="40" width="30" height="30" as="geometry" />
        </mxCell>
        <mxCell id="14" value="" style="edgeStyle=elbowEdgeStyle;elbow=horizontal;verticalAlign=bottom;endArrow=open;endSize=8;strokeColor=#FF0000;endFill=1;rounded=0" parent="3" source="13" target="15" edge="1">
          <mxGeometry x="40" y="20" as="geometry">
            <mxPoint x="55" y="90" as="targetPoint" />
          </mxGeometry>
        </mxCell>
        <mxCell id="15" value="Android Automotive&#xa;SDK/NDK" style="" parent="3" vertex="1">
          <mxGeometry x="20" y="110" width="110" height="50" as="geometry" />
        </mxCell>
        <mxCell id="16" value="Bridge(JNI)" style="" parent="3" vertex="1">
          <mxGeometry x="20" y="216" width="110" height="50" as="geometry" />
        </mxCell>
        <mxCell id="17" value="" style="endArrow=open;strokeColor=#FF0000;endFill=1;rounded=0;entryX=0.486;entryY=0;entryDx=0;entryDy=0;entryPerimeter=0;" parent="3" target="16" edge="1">
          <mxGeometry relative="1" as="geometry">
            <mxPoint x="75.5" y="162" as="sourcePoint" />
            <mxPoint x="75.5" y="192" as="targetPoint" />
          </mxGeometry>
        </mxCell>
        <mxCell id="18" value="BaseEngine.ini&#xa;repositories.cfg" style="" parent="3" vertex="1">
          <mxGeometry x="20" y="325" width="110" height="50" as="geometry" />
        </mxCell>
        <mxCell id="19" value="" style="endArrow=open;strokeColor=#FF0000;endFill=1;rounded=0" parent="3" edge="1">
          <mxGeometry relative="1" as="geometry">
            <mxPoint x="75.5" y="272" as="sourcePoint" />
            <mxPoint x="75.5" y="322" as="targetPoint" />
          </mxGeometry>
        </mxCell>
        <mxCell id="22" value="" style="edgeStyle=elbowEdgeStyle;elbow=horizontal;align=left;verticalAlign=bottom;endArrow=open;endSize=8;strokeColor=#FF0000;exitX=0.432;exitY=0;endFill=1;rounded=0;entryX=0.75;entryY=0.5;entryPerimeter=0;exitDx=0;exitDy=0;exitPerimeter=0;" parent="3" source="30" target="25" edge="1">
          <mxGeometry x="-1" relative="1" as="geometry">
            <mxPoint x="160" y="256" as="targetPoint" />
            <Array as="points">
              <mxPoint x="190" y="286" />
            </Array>
            <mxPoint x="190" y="331" as="sourcePoint" />
          </mxGeometry>
        </mxCell>
        <mxCell id="25" value="" style="shape=line;strokeWidth=6;strokeColor=#ff0000;rotation=90" parent="3" vertex="1">
          <mxGeometry x="130" y="233.5" width="50" height="15" as="geometry" />
        </mxCell>
        <mxCell id="26" value="" style="edgeStyle=elbowEdgeStyle;elbow=horizontal;verticalAlign=bottom;endArrow=open;endSize=8;strokeColor=#FF0000;endFill=1;rounded=0" parent="3" source="25" edge="1">
          <mxGeometry x="130" y="196" as="geometry">
            <mxPoint x="130" y="241" as="targetPoint" />
          </mxGeometry>
        </mxCell>
        <mxCell id="30" value="dispatch&#xa;worker thread" style="" parent="3" vertex="1">
          <mxGeometry x="140" y="293" width="110" height="50" as="geometry" />
        </mxCell>
        <mxCell id="31" value="APK" style="shape=note;whiteSpace=wrap;size=17" parent="3" vertex="1">
          <mxGeometry x="105" y="490" width="100" height="50" as="geometry" />
        </mxCell>
        <mxCell id="32" value="" style="endArrow=none;strokeColor=#FF0000;endFill=0;rounded=0;dashed=1" parent="3" source="18" target="31" edge="1">
          <mxGeometry relative="1" as="geometry" />
        </mxCell>
        <mxCell id="34" value="" style="whiteSpace=wrap;strokeColor=#FF0000;fillColor=#FF0000" parent="3" vertex="1">
          <mxGeometry x="245" y="359" width="5" height="45" as="geometry" />
        </mxCell>
        <mxCell id="41" value="" style="edgeStyle=elbowEdgeStyle;elbow=horizontal;entryX=0;entryY=0.5;strokeColor=#FF0000;endArrow=open;endFill=1;rounded=0" parent="3" target="34" edge="1">
          <mxGeometry width="100" height="100" relative="1" as="geometry">
            <mxPoint x="195.5" y="342" as="sourcePoint" />
            <mxPoint x="160" y="380" as="targetPoint" />
            <Array as="points">
              <mxPoint x="196" y="352" />
              <mxPoint x="195" y="400" />
            </Array>
          </mxGeometry>
        </mxCell>
        <mxCell id="4" value="Server" style="swimlane;whiteSpace=wrap" parent="1" vertex="1">
          <mxGeometry x="724.5" y="128" width="280" height="570" as="geometry" />
        </mxCell>
        <mxCell id="33" value="source data" style="" parent="4" vertex="1">
          <mxGeometry x="85" y="340" width="110" height="50" as="geometry" />
        </mxCell>
        <mxCell id="37" value="" style="edgeStyle=none;strokeColor=#FF0000;endArrow=open;endFill=1;rounded=0;entryX=-0.041;entryY=0.82;entryDx=0;entryDy=0;entryPerimeter=0;" parent="4" target="33" edge="1">
          <mxGeometry width="100" height="100" relative="1" as="geometry">
            <mxPoint x="-24.5" y="382" as="sourcePoint" />
            <mxPoint x="85.5" y="352" as="targetPoint" />
          </mxGeometry>
        </mxCell>
        <mxCell id="38" value="" style="ellipse;shape=endState;fillColor=#000000;strokeColor=#ff0000" parent="4" vertex="1">
          <mxGeometry x="125" y="500" width="30" height="30" as="geometry" />
        </mxCell>
        <mxCell id="39" value="" style="endArrow=open;strokeColor=#FF0000;endFill=1;rounded=0" parent="4" target="38" edge="1">
          <mxGeometry relative="1" as="geometry">
            <mxPoint x="140.5" y="392" as="sourcePoint" />
          </mxGeometry>
        </mxCell>
        <mxCell id="QaMNd8PDRCwLksFiRKNx-41" value="initial load " style="" vertex="1" parent="4">
          <mxGeometry x="85" y="105" width="110" height="50" as="geometry" />
        </mxCell>
        <mxCell id="QaMNd8PDRCwLksFiRKNx-43" value="" style="edgeStyle=none;strokeColor=#FF0000;endArrow=open;endFill=1;rounded=0;exitX=0.432;exitY=1.08;exitDx=0;exitDy=0;exitPerimeter=0;entryX=0.468;entryY=-0.08;entryDx=0;entryDy=0;entryPerimeter=0;" edge="1" parent="4" target="33">
          <mxGeometry width="100" height="100" relative="1" as="geometry">
            <mxPoint x="136.51999999999998" y="156" as="sourcePoint" />
            <mxPoint x="136.5" y="312" as="targetPoint" />
          </mxGeometry>
        </mxCell>
        <mxCell id="35" value="" style="edgeStyle=elbowEdgeStyle;elbow=horizontal;strokeColor=#FF0000;endArrow=open;endFill=1;rounded=0;entryX=0.25;entryY=0.5;entryPerimeter=0;exitX=-0.041;exitY=0.28;exitDx=0;exitDy=0;exitPerimeter=0;" parent="1" target="25" edge="1" source="33">
          <mxGeometry width="100" height="100" relative="1" as="geometry">
            <mxPoint x="800" y="460" as="sourcePoint" />
            <mxPoint x="604.5" y="354" as="targetPoint" />
            <Array as="points">
              <mxPoint x="714.5" y="480" />
              <mxPoint x="714.5" y="369" />
            </Array>
          </mxGeometry>
        </mxCell>
        <mxCell id="QaMNd8PDRCwLksFiRKNx-44" value="HMI" style="text;html=1;align=center;verticalAlign=middle;resizable=0;points=[];autosize=1;strokeColor=none;fillColor=none;" vertex="1" parent="1">
          <mxGeometry x="375" y="455" width="50" height="30" as="geometry" />
        </mxCell>
        <mxCell id="QaMNd8PDRCwLksFiRKNx-45" value="request" style="text;html=1;align=center;verticalAlign=middle;resizable=0;points=[];autosize=1;strokeColor=none;fillColor=none;" vertex="1" parent="1">
          <mxGeometry x="360" y="345" width="60" height="30" as="geometry" />
        </mxCell>
      </root>
    </mxGraphModel>
  </diagram>
</mxfile>
